<svg width="25" height="20" viewBox="0 0 25 20" fill="none" xmlns="http://www.w3.org/2000/svg">
<g clip-path="url(#clip0_37_74)">
<path d="M5.88689 3.624C7.61736 2.27634 9.83611 1.25017 12.5002 1.25017C15.6564 1.25017 18.1838 2.68924 20.0236 4.39861C21.8517 6.09392 23.0744 8.09002 23.6525 9.5197C23.7814 9.8283 23.7814 10.172 23.6525 10.4806C23.1291 11.7424 22.0783 13.5197 20.5314 15.1056L24.6408 18.3244C25.0471 18.6447 25.1213 19.2345 24.801 19.6408C24.4806 20.047 23.8908 20.1213 23.4846 19.801L0.359395 1.67556C-0.0481052 1.35603 -0.11955 0.76697 0.199864 0.359392C0.519317 -0.0481085 1.10838 -0.119554 1.51619 0.19986L5.88689 3.624ZM8.71502 5.84002L12.2424 8.60564C12.4064 8.27361 12.5002 7.89861 12.5002 7.46502C12.5002 7.05095 12.3478 6.62908 12.1721 6.2658C12.2814 6.25408 12.3908 6.21502 12.5002 6.21502C14.5705 6.21502 16.2502 7.8947 16.2502 9.96502C16.2502 10.5353 16.1369 11.0431 15.9025 11.5041L17.4455 12.6838C17.8791 11.8869 18.1252 10.9728 18.1252 9.96502C18.1252 6.8947 15.6056 4.34002 12.5002 4.34002C11.0431 4.34002 9.71111 4.92986 8.71502 5.84002ZM12.5002 18.7502C9.34393 18.7502 6.81658 17.3127 4.97674 15.6017C3.14939 13.8713 1.92752 11.8752 1.34627 10.4806C1.21814 10.172 1.21814 9.8283 1.34627 9.5197C1.71893 8.62517 2.35525 7.46892 3.24588 6.30877L6.92986 9.21111C6.89471 9.46892 6.87518 9.73064 6.87518 9.96502C6.87518 13.1056 9.39471 15.6252 12.5002 15.6252C13.2306 15.6252 13.9299 15.4845 14.5705 15.2306L17.4299 17.4806C16.0119 18.2463 14.3674 18.7502 12.5002 18.7502Z" fill="#093545"/>
</g>
<defs>
<clipPath id="clip0_37_74">
<rect width="25" height="20" fill="white"/>
</clipPath>
</defs>
</svg>
