<svg width="23" height="20" viewBox="0 0 23 20" fill="none" xmlns="http://www.w3.org/2000/svg">
<g clip-path="url(#clip0_37_72)">
<path d="M10.9358 6.26562C11.0453 6.25391 11.1549 6.25 11.2644 6.25C13.3373 6.25 15.0192 7.89453 15.0192 10C15.0192 12.0703 13.3373 13.75 11.2644 13.75C9.15621 13.75 7.50958 12.0703 7.50958 10C7.50958 9.89063 7.51349 9.78125 7.52522 9.67188C7.88897 9.84766 8.31138 10 8.76117 10C10.1418 10 11.2644 8.87891 11.2644 7.5C11.2644 7.05078 11.1118 6.62891 10.9358 6.26562ZM18.7974 4.39844C20.6279 6.09375 21.8521 8.08984 22.431 9.51953C22.56 9.82812 22.56 10.1719 22.431 10.4805C21.8521 11.875 20.6279 13.8711 18.7974 15.6016C16.9552 17.3125 14.4246 18.75 11.2644 18.75C8.10408 18.75 5.57351 17.3125 3.7321 15.6016C1.90164 13.8711 0.678206 11.875 0.0962529 10.4805C-0.0320945 10.1719 -0.0320945 9.82812 0.0962529 9.51953C0.678206 8.08984 1.90164 6.09375 3.7321 4.39844C5.57351 2.68906 8.10408 1.25 11.2644 1.25C14.4246 1.25 16.9552 2.68906 18.7974 4.39844ZM11.2644 4.375C8.15493 4.375 5.63218 6.89453 5.63218 10C5.63218 13.1055 8.15493 15.625 11.2644 15.625C14.3738 15.625 16.8965 13.1055 16.8965 10C16.8965 6.89453 14.3738 4.375 11.2644 4.375Z" fill="#093545"/>
</g>
<defs>
<clipPath id="clip0_37_72">
<rect width="22.5287" height="20" fill="white"/>
</clipPath>
</defs>
</svg>
