<svg width="512" height="512" viewBox="0 0 512 512" fill="none" xmlns="http://www.w3.org/2000/svg">
<path d="M256 0C114.6 0 0 114.6 0 256C0 397.4 114.6 512 256 512C397.4 512 512 397.4 512 256C512 114.6 397.4 0 256 0ZM232 152C232 138.8 242.8 128 256 128C269.2 128 280 138.75 280 152V280C280 293.25 269.25 304 256 304C242.75 304 232 293.3 232 280V152ZM256 400C238.64 400 224.56 385.92 224.56 368.56C224.56 351.2 238.63 337.12 256 337.12C273.37 337.12 287.44 351.2 287.44 368.56C287.4 385.9 273.4 400 256 400Z" fill="#842029"/>
</svg>
